# xmcd
#
# Track frame offsets: 
#        150
#        15040
#        26939
#        45026
#        61466
#        85415
#        99007
#        125802
#        142751
#        163072
#        184353
#        197329
#        220086
#
# Disc length: 3204 seconds
#
# Revision: 0
# Processed by: cddbd v1.5.2PL0 Copyright (c) Steve Scherf et al.
# Submitted via: ExactAudioCopyFreeDBPlugin 1.0
#
DISCID=a10c820d
DTITLE=Igor Prado And Delta Groove All Stars - Way Down South
DYEAR=2015
DGENRE=Blues
TTITLE0=Matchbox
TTITLE1=Ride With Me Baby
TTITLE2=She's Got It
TTITLE3=Baby Won't You Jump With Me
TTITLE4=What Have I Done
TTITLE5=Shake and Fingerpop
TTITLE6=Talk To Me Baby
TTITLE7=If You Ever Need Me
TTITLE8=You Got What It Takes
TTITLE9=Big Mama Blues
TTITLE10=You better Believe It
TTITLE11=Rooster Blues
TTITLE12=Trying To Do Right
EXTD=
EXTT0=
EXTT1=
EXTT2=
EXTT3=
EXTT4=
EXTT5=
EXTT6=
EXTT7=
EXTT8=
EXTT9=
EXTT10=
EXTT11=
EXTT12=
PLAYORDER=
